PathFileType	4	(X/Y/Z)	C:\Users\Graham\Documents\MATLAB\MOtoNMS_v2_2\MyData\ElaboratedData\S1\17-05-18\staticElaborations\Static1\Static1\\Static1.trc
DataRate	CameraRate	NumFrames	NumMarkers	Units	OrigDataRate	DataStartFrame
100	100	8	38	mm	100	2
Frame#	Time	V_Sacral			R_ASIS			L_ASIS			R_Knee_Lat			R_Knee_Med			R_Thigh_Upper			R_Thigh_Front			R_Thigh_Rear			L_Knee_Lat			L_Knee_Med			L_Thigh_Upper			L_Thigh_Front			L_Thigh_Rear			R_Ankle_Lat			R_Ankle_Med			R_Shank_Upper			R_Shank_Front			R_Shank_Rear			L_Ankle_Lat			L_Ankle_Med			L_Shank_Upper			L_Shank_Front			L_Shank_Rear			R_Heel			R_MTP1			R_MTP5			L_Heel			L_MTP1			L_MTP5			Clavicle			R_Acromium			L_Acromium			LAJC			RAJC			LHJC			RHJC			LKJC			RKJC		
		X1	Y1	Z1	X2	Y2	Z2	X3	Y3	Z3	X4	Y4	Z4	X5	Y5	Z5	X6	Y6	Z6	X7	Y7	Z7	X8	Y8	Z8	X9	Y9	Z9	X10	Y10	Z10	X11	Y11	Z11	X12	Y12	Z12	X13	Y13	Z13	X14	Y14	Z14	X15	Y15	Z15	X16	Y16	Z16	X17	Y17	Z17	X18	Y18	Z18	X19	Y19	Z19	X20	Y20	Z20	X21	Y21	Z21	X22	Y22	Z22	X23	Y23	Z23	X24	Y24	Z24	X25	Y25	Z25	X26	Y26	Z26	X27	Y27	Z27	X28	Y28	Z28	X29	Y29	Z29	X30	Y30	Z30	X31	Y31	Z31	X32	Y32	Z32	X33	Y33	Z33	X34	Y34	Z34	X35	Y35	Z35	X36	Y36	Z36	X37	Y37	Z37	X38	Y38	Z38	

31	0.300000	-43.173106	1070.854019	4.341330	155.551806	1026.700086	130.255785	158.265472	1035.087578	-101.965235	16.281873	533.750437	174.650464	42.029944	522.819158	66.342808	147.365567	867.618286	172.330230	158.822610	744.298047	138.505175	104.860618	743.706745	197.452939	23.079953	537.802708	-163.351459	30.380279	521.220480	-55.638156	160.326865	862.550908	-142.869940	162.324756	744.703323	-93.256233	124.756827	742.943316	-170.018546	11.833018	111.602249	183.720392	20.782132	107.621942	99.447477	67.627936	329.685931	164.896838	45.296596	217.263995	108.921054	33.835131	213.595303	190.225551	6.146425	99.977849	-174.959157	25.364210	104.882402	-86.460588	61.403165	332.380639	-149.273453	42.229537	214.480311	-104.871916	29.109100	217.317299	-183.457679	-56.118527	53.689888	127.682891	174.721070	62.726696	115.711555	161.914007	56.961388	191.828668	-62.424059	57.008301	-125.385350	174.581617	58.877435	-112.299447	151.730838	51.676418	-197.108898	152.917450	1462.623555	13.868295	106.105821	1498.719848	204.623093	96.814250	1505.788086	-188.566918	15.755318	102.430125	-130.709872	16.307575	109.612096	141.583934	84.453263	966.342940	-73.081535	82.491754	960.280243	94.773830	26.730116	529.511594	-109.494807	29.155909	528.284798	120.496636	
32	0.310000	-43.151260	1070.838560	4.374049	155.617416	1026.697719	130.202553	158.238721	1035.103645	-102.030628	16.352831	533.748692	174.668770	42.078617	522.817762	66.325960	147.447527	867.608106	172.277033	158.897620	744.287893	138.436729	104.959094	743.697090	197.399689	23.082226	537.802778	-163.360466	30.411814	521.223358	-55.654703	160.303089	862.562667	-142.947177	162.338209	744.713244	-93.333979	124.729423	742.950413	-170.084430	11.834635	111.603871	183.718978	20.781851	107.620120	99.445462	67.657586	329.676593	164.885639	45.312837	217.254681	108.918219	33.860600	213.592077	190.218856	6.144634	99.977638	-174.958660	25.366250	104.882790	-86.461930	61.404310	332.376922	-149.282109	42.237097	214.478125	-104.875298	29.103167	217.314465	-183.461991	-56.118178	53.690072	127.681689	174.721226	62.726786	115.709230	161.913872	56.963140	191.827234	-62.424204	57.006948	-125.385849	174.580907	58.879933	-112.301954	151.730123	51.676834	-197.109649	152.911983	1462.620149	13.844695	106.158220	1498.713383	204.617991	96.749824	1505.786317	-188.565871	15.755442	102.430214	-130.710295	16.308243	109.611996	141.582220	84.446910	966.345147	-73.121182	82.552170	960.269153	94.742235	26.747020	529.513068	-109.507585	29.215724	528.283227	120.497365	
33	0.320000	-43.129952	1070.826929	4.405040	155.683856	1026.691389	130.146931	158.212908	1035.113220	-102.094614	16.417098	533.745046	174.677170	42.119479	522.817144	66.310469	147.527244	867.595320	172.223693	158.965670	744.274648	138.368014	105.052201	743.686408	197.349525	23.077114	537.802329	-163.369386	30.434906	521.224950	-55.670620	160.274751	862.569989	-143.021607	162.340967	744.718821	-93.410236	124.693801	742.954180	-170.149924	11.836241	111.604930	183.718411	20.781093	107.618106	99.443755	67.682995	329.667449	164.874802	45.327659	217.246917	108.915392	33.884663	213.589295	190.213085	6.142723	99.977595	-174.958144	25.367259	104.883458	-86.462849	61.400483	332.374299	-149.291680	42.242293	214.476173	-104.878639	29.094771	217.312068	-183.466266	-56.117338	53.689653	127.681158	174.721182	62.727011	115.707463	161.913597	56.964884	191.826104	-62.424212	57.005731	-125.386710	174.580034	58.882484	-112.304525	151.729199	51.677231	-197.110666	152.903167	1462.614548	13.818250	106.207133	1498.705097	204.609928	96.683182	1505.782748	-188.567724	15.754991	102.430527	-130.710496	16.308667	109.611518	141.581083	84.438074	966.345586	-73.159308	82.610023	960.258113	94.709657	26.756010	529.513640	-109.520003	29.268289	528.281095	120.493820	
34	0.330000	-43.108390	1070.818928	4.433999	155.751014	1026.681354	130.089865	158.188650	1035.116480	-102.156150	16.473395	533.739620	174.677706	42.152049	522.816552	66.296201	147.604063	867.579943	172.170875	159.026650	744.258742	138.299844	105.139013	743.674709	197.302833	23.065082	537.801355	-163.378158	30.448892	521.225274	-55.685360	160.243069	862.572576	-143.091589	162.333525	744.719867	-93.483182	124.651247	742.954342	-170.213290	11.837856	111.605389	183.718524	20.779859	107.616026	99.442355	67.703986	329.658601	164.864199	45.340669	217.240491	108.912604	33.907023	213.586918	190.208066	6.140752	99.977589	-174.957653	25.367139	104.884383	-86.463325	61.391936	332.372745	-149.302016	42.244948	214.474456	-104.882055	29.084158	217.310126	-183.470324	-56.116054	53.688577	127.681264	174.720896	62.727282	115.706281	161.913155	56.966445	191.825206	-62.424088	57.004658	-125.387829	174.578956	58.885015	-112.306981	151.728081	51.677623	-197.111894	152.892342	1462.606770	13.789122	106.252801	1498.695790	204.598905	96.615411	1505.775815	-188.573178	15.753946	102.430986	-130.710489	16.308857	109.610708	141.580440	84.427527	966.344323	-73.195093	82.665556	960.247251	94.676854	26.756987	529.513315	-109.531759	29.312722	528.278086	120.486953	
35	0.340000	-43.086791	1070.814460	4.460789	155.818456	1026.667987	130.032481	158.166394	1035.113764	-102.214330	16.521010	533.732620	174.672410	42.176191	522.815174	66.282958	147.677485	867.562192	172.119200	159.080778	744.240792	138.233036	105.218748	743.661957	197.259768	23.046910	537.799845	-163.386707	30.453561	521.224371	-55.698421	160.209277	862.570333	-143.155856	162.316838	744.716392	-93.551206	124.603304	742.950808	-170.272916	11.839511	111.605282	183.719118	20.778192	107.614004	99.441249	67.720586	329.650162	164.853836	45.351490	217.235073	108.909854	33.927437	213.584911	190.203589	6.138784	99.977450	-174.957234	25.365964	104.885491	-86.463412	61.379180	332.372170	-149.312874	42.244995	214.473038	-104.885646	29.071691	217.308622	-183.474041	-56.114456	53.686888	127.681913	174.720357	62.727507	115.705661	161.912513	56.967692	191.824464	-62.423847	57.003719	-125.389090	174.577646	58.887470	-112.309196	151.726789	51.678009	-197.113240	152.880605	1462.596693	13.757548	106.295857	1498.686289	204.584958	96.547640	1505.764171	-188.582708	15.752374	102.431470	-130.710323	16.308852	109.609643	141.580184	84.415718	966.341465	-73.227857	82.718582	960.236693	94.644648	26.750236	529.512108	-109.542564	29.348600	528.273897	120.477684	
36	0.350000	-43.066072	1070.813453	4.485405	155.885456	1026.651751	129.976014	158.146427	1035.105544	-102.268403	16.559842	533.724323	174.663049	42.192153	522.812292	66.270548	147.747113	867.542454	172.069260	159.128545	744.221549	138.168429	105.290826	743.648117	197.220317	23.023624	537.797781	-163.394937	30.449195	521.222303	-55.709405	160.174555	862.563362	-143.213546	162.292249	744.708594	-93.612983	124.551686	742.943670	-170.327414	11.841238	111.604700	183.719999	20.776178	107.612151	99.440414	67.733016	329.642250	164.843849	45.359812	217.230263	108.907134	33.945717	213.583238	190.199462	6.136878	99.977010	-174.956931	25.363950	104.886655	-86.463226	61.362926	332.372419	-149.323928	42.242505	214.472022	-104.889457	29.057815	217.307503	-183.477363	-56.112741	53.684736	127.682962	174.719584	62.727613	115.705548	161.911645	56.968564	191.823816	-62.423524	57.002886	-125.390383	174.576094	58.889806	-112.311100	151.725347	51.678380	-197.114589	152.868740	1462.584116	13.723813	106.337266	1498.677375	204.568146	96.480994	1505.746825	-188.596518	15.750414	102.431833	-130.710079	16.308708	109.608426	141.580206	84.402856	966.337119	-73.257094	82.768580	960.226546	94.613868	26.736409	529.510042	-109.552171	29.375997	528.268307	120.466798	
37	0.360000	-43.047438	1070.815755	4.507933	155.951065	1026.633174	129.921712	158.128894	1035.092383	-102.317806	16.590357	533.715039	174.650922	42.200580	522.807413	66.258838	147.812567	867.521236	172.021626	159.170629	744.201832	138.106886	105.354889	743.633206	197.184370	22.996408	537.795133	-163.402743	30.436566	521.219149	-55.718065	160.139984	862.551948	-143.264186	162.261378	744.696827	-93.667521	124.498176	742.933180	-170.375696	11.843046	111.603783	183.721003	20.773951	107.610547	99.439822	67.741668	329.634988	164.834481	45.365469	217.225671	108.904456	33.961722	213.581866	190.195550	6.135085	99.976137	-174.956773	25.361401	104.887706	-86.462931	61.344016	332.373291	-149.334810	42.237708	214.471518	-104.893462	29.043020	217.306678	-183.480301	-56.111139	53.682352	127.684222	174.718626	62.727567	115.705875	161.910538	56.969070	191.823222	-62.423163	57.002117	-125.391614	174.574314	58.891997	-112.312678	151.723790	51.678720	-197.115819	152.857228	1462.568826	13.688218	106.378205	1498.669695	204.548544	96.416563	1505.723259	-188.614541	15.748243	102.431921	-130.709852	16.308499	109.607165	141.580413	84.389029	966.331369	-73.282480	82.814847	960.216869	94.585286	26.716487	529.507141	-109.560404	29.395469	528.261226	120.454880	
38	0.370000	-43.031946	1070.821035	4.528503	156.014220	1026.612809	129.870742	158.113818	1035.074906	-102.362173	16.613495	533.705068	174.636755	42.202479	522.800363	66.247776	147.873413	867.499093	171.976859	159.207777	744.182436	138.049271	105.410813	743.617333	197.151792	22.966514	537.791868	-163.410021	30.416877	521.215014	-55.724333	160.106513	862.536531	-143.307649	162.226008	744.681570	-93.714194	124.444529	742.919710	-170.417017	11.844906	111.602693	183.722015	20.771682	107.609234	99.439436	67.747069	329.628496	164.826027	45.368520	217.221004	108.901867	33.975347	213.580757	190.191798	6.133439	99.974757	-174.956774	25.358643	104.888455	-86.462702	61.323337	332.374549	-149.345148	42.230993	214.471603	-104.897581	29.027798	217.306027	-183.482919	-56.109866	53.680016	127.685482	174.717554	62.727383	115.706564	161.909204	56.969278	191.822665	-62.422823	57.001351	-125.392708	174.572351	58.894015	-112.313948	151.722168	51.679014	-197.116820	152.846323	1462.550677	13.651056	106.419932	1498.663697	204.526250	96.355366	1505.693484	-188.636474	15.746041	102.431606	-130.709738	16.308294	109.605964	141.580726	84.374323	966.324248	-73.303882	82.856684	960.207643	94.559564	26.691696	529.503441	-109.567177	29.407987	528.252716	120.442266	
